<svg viewBox="0 0 27 26"><path d="m26.325 25.325c-1.575-.0375-3.1125-.0375-4.6875 0-.3375 0-.4125-.075-.4125-.4125 0-2.775 0-5.5875 0-8.3625 0-.6375-.0375-1.275-.225-1.875-.5625-1.95-2.8125-2.6625-4.425-1.35-.8625.675-1.2 1.6125-1.2 2.7375v7.875c0 .3375-.0375.675 0 1.05.0375.3-.1125.375-.375.3375-1.6125 0-3.1875 0-4.8 0-.29999 0-.37499-.075-.37499-.375.0375-2.3625.0375-4.725.0375-7.125 0-2.925 0-5.85-.0375-8.73748 0-.3375.075-.4125.37499-.4125h4.8c.3 0 .375.075.375.375v1.91248c.1125-.1125.15-.15.1875-.1875 1.4625-2.13748 3.525-2.73748 5.9625-2.36248 2.8125.45 4.6125 2.39998 5.0625 5.39998.1125.7125.15 1.425.15 2.1375v8.9625c0 .3-.075.4125-.4125.4125z"/><path d="m6.825 17v7.875c0 .3375-.075.45-.4125.45-1.575-.0375-3.15 0-4.725 0-.3 0-.375-.075-.375-.375 0-5.2875 0-10.6125 0-15.89995 0-.2625.075-.375.375-.375h4.8375c.3375 0 .375.1125.375.4125-.075 2.62495-.075 5.24995-.075 7.91245z"/><path d="m7.08751 4.32502c-.375 1.5-1.9125 2.3625-3.675 2.0625-1.875-.3-2.925003-2.1375-2.25-3.9375.45-1.125 1.5375-1.8 2.925-1.7625 2.1-.0375 3.4875 1.65 3 3.6375z"/></svg>