<svg viewBox="0 0 32 39"><path d="m13.5195 26.7933c.7777 1.4883 3.057 2.7486 5.4771 2.7486 7.2067 0 12.3956-6.6302 12.3956-14.8626 0-7.89046-6.4425-13.79661-14.7285-13.79661-10.31063 0-15.781025 6.91844-15.781025 14.46031 0 3.5062 1.863685 7.8637 4.846925 9.2514.45587.2146.69721.1207.79777-.3151.08044-.3352.48268-1.9508.66369-2.7083.06703-.2414.0067-.5028-.1676-.6838-.98548-1.2-1.77654-3.3989-1.77654-5.4503 0-5.2693 3.98883-10.37097 10.78658-10.37097 5.8726 0 9.9821 3.99553 9.9821 9.72067 0 6.4626-3.2648 10.9408-7.515 10.9408-2.3464 0-4.1028-1.9374-3.5397-4.3173.6771-2.8425 1.9776-5.9062 1.9776-7.9576 0-1.8368-.9854-3.3653-3.0234-3.3653-2.4 0-4.32405 2.4804-4.32405 5.7988 0 2.1185.71735 3.5464.71735 3.5464s-2.36651 10.009-2.80226 11.8726c-.49609 2.1453-.26816 5.2224-.05363 7.0995.48938.1877.97206.3754 1.47486.5296.97206-1.562 2.54083-4.3106 3.09723-6.4693.2949-1.1061 1.4949-5.6715 1.4949-5.6715z"/></svg>