<svg viewBox="0 0 32 29"><path clip-rule="evenodd" d="m31.3757 13.1169c.388.5536.6076 1.2076.6323 1.8831.0103.6613-.1669 1.312-.5109 1.8769-.344.5648-.8408 1.0208-1.4331 1.3151.027.3515.027.7046 0 1.056 0 5.376-6.264 9.744-13.992 9.744-7.72798 0-13.99198-4.368-13.99198-9.744-.02702-.3514-.02702-.7045 0-1.056-.46162-.212-.8716-.522-1.201535-.9082-.329935-.3863-.571932-.8397-.709221-1.3288-.1372892-.4891-.16658691-1.0022-.0858627-1.5038.0807237-.5015.2695397-.9795.5533617-1.4009.283821-.4213.655857-.7759 1.090337-1.0391.43448-.2633.921-.4289 1.42585-.4854.50485-.0566 1.01595-.0026 1.4979.158.48194.1606.92319.4241 1.29317.7722 2.76545-1.8755 6.01888-2.90159 9.35998-2.95196l1.776-8.328c.02-.09641.0588-.1879.1144-.269174s.1267-.150712.2093-.204289c.0826-.053578.175-.090228.2719-.107828.0969-.017601.1963-.0158.2924.005296l5.88 1.175995c.2872-.49334.7408-.868191 1.2794-1.057248.5386-.189058 1.127-.179945 1.6595.025701s.9742.594357 1.246 1.096367c.2717.502.3556 1.08443.2366 1.64272-.1189.5583-.433 1.0559-.8858 1.4035s-1.0147.52242-1.5848.49309c-.57-.02933-1.111-.26089-1.5257-.65312-.4148-.39223-.6761-.91945-.7372-1.487l-5.136-1.08-1.56 7.48799c3.3005.0708 6.5098 1.09616 9.24 2.95196.4877-.4681 1.1004-.7851 1.7643-.9128.6638-.1277 1.3504-.0607 1.977.193.6266.2536 1.1664.6832 1.5544 1.2367zm-9.8444 6.68c1.3246 0 2.3984-1.0738 2.3984-2.3984s-1.0738-2.3984-2.3984-2.3984c-1.3247 0-2.3985 1.0738-2.3985 2.3984s1.0738 2.3984 2.3985 2.3984zm-8.7188-2.3984c0 1.3246-1.0738 2.3984-2.3984 2.3984-1.32464 0-2.39846-1.0738-2.39846-2.3984s1.07382-2.3984 2.39846-2.3984c1.3246 0 2.3984 1.0738 2.3984 2.3984zm3.2112 7.1728-.0119.0001-.0118-.0001v.0001c-1.7106.0104-2.9755-.3728-3.8034-.7483-.417-.1891-.7248-.377-.9237-.5134-.0993-.0681-.1714-.1233-.2161-.1592-.0224-.0179-.0379-.031-.0466-.0385l-.007-.0061c-.0002-.0002-.0005-.0004-.0007-.0006-.2644-.2407-.6739-.2227-.9161.0409-.24293.2643-.22556.6755.0388.9184l.001.0009.0012.0011.0029.0027.0079.0071.024.021c.0197.0169.0467.0396.0811.0671.0687.0551.1668.1298.2944.2174.2553.175.6291.4017 1.122.6252.9835.446 2.4348.8765 4.3521.8643 1.9174.0122 3.3687-.4183 4.3521-.8643.493-.2235.8668-.4502 1.122-.6252.1277-.0876.2258-.1623.2945-.2174.0344-.0275.0614-.0502.081-.0671l.0241-.021.0079-.0071.0029-.0027.0012-.0011.001-.0009c.2643-.2429.2817-.6541.0388-.9184-.2422-.2636-.6517-.2816-.9161-.0409l-.0007.0006-.007.0061c-.0087.0075-.0242.0206-.0466.0385-.0447.0359-.1168.0911-.2162.1592-.1988.1364-.5066.3243-.9237.5134-.8278.3755-2.0927.7587-3.8033.7483z" fill-rule="evenodd"/></svg>