<svg viewBox="0 0 29 29"><path d="m24.7507 4.21149c-2.573-2.64865-6.1297-4.08649-9.7622-4.08649-7.71889 0-13.9243 6.28108-13.84862 13.9243 0 2.4216.68108 4.7676 1.81621 6.8865l-1.967565 7.1892 7.340545-1.8919c2.04323 1.1351 4.31353 1.6649 6.58373 1.6649 7.6433 0 13.8487-6.2811 13.8487-13.9244 0-3.7081-1.4378-7.18914-4.0108-9.76211zm-9.7622 21.34051c-2.0432 0-4.0865-.5297-5.827-1.5892l-.45406-.227-4.38918 1.1351 1.13513-4.3135-.3027-.454c-3.32973-5.373-1.74054-12.48651 3.70811-15.81624 5.4486-3.329728 12.4865-1.74054 15.8162 3.70811 3.3297 5.44863 1.7406 12.48653-3.7081 15.81623-1.7405 1.1351-3.8595 1.7405-5.9784 1.7405zm6.6595-8.4-.8324-.3784s-1.2109-.5297-1.9676-.9081c-.0757 0-.1514-.0756-.227-.0756-.2271 0-.3784.0756-.5298.1513 0 0-.0756.0757-1.1351 1.2865-.0757.1514-.227.227-.3784.227h-.0757c-.0756 0-.227-.0756-.3027-.1513l-.3783-.1514c-.8325-.3784-1.5892-.8324-2.1946-1.4378-.1514-.1514-.3784-.3027-.5298-.4541-.5297-.5297-1.0594-1.1351-1.4378-1.8162l-.0757-.1513c-.0757-.0757-.0757-.1514-.1513-.3027 0-.1514 0-.3027.0756-.3784 0 0 .3027-.3784.5298-.6054.1513-.1514.227-.3784.3784-.5297.1513-.2271.227-.5298.1513-.7568-.0757-.3784-.9838-2.42163-1.2108-2.87568-.1514-.22703-.3027-.3027-.5297-.37838h-.2271c-.1513 0-.3783 0-.60537 0-.15135 0-.3027.07568-.45405.07568l-.07568.07567c-.15135.07568-.3027.22703-.45405.30271-.15135.15135-.22703.3027-.37838.45405-.52973.68108-.83243 1.51351-.83243 2.34595 0 .6054.15135 1.2108.37837 1.7405l.07568.2271c.68108 1.4378 1.58919 2.7243 2.80001 3.8594l.3027.3027c.227.2271.454.3784.6054.6054 1.5892 1.3622 3.4054 2.346 5.4486 2.8757.2271.0757.5298.0757.7568.1514h.7568c.3783 0 .8324-.1514 1.1351-.3027.227-.1514.3784-.1514.5297-.3027l.1514-.1514c.1513-.1514.3027-.227.454-.3784.1514-.1513.3027-.3027.3784-.454.1514-.3027.227-.6811.3027-1.0595 0-.1513 0-.3784 0-.5297 0 0-.0757-.0757-.227-.1514z"/></svg>