<svg width="498" height="468" viewBox="0 0 498 468" fill="none" xmlns="http://www.w3.org/2000/svg">
<g clip-path="url(#clip0_7_2)">
<mask id="mask0_7_2" style="mask-type:luminance" maskUnits="userSpaceOnUse" x="-121" y="-42" width="755" height="566">
<path d="M-121 -42H634V524H-121V-42Z" fill="white"/>
</mask>
<g mask="url(#mask0_7_2)">
<path d="M292.58 146.479C157.468 98.6191 28.1544 115.624 3.7489 184.461C-20.6566 253.298 69.0881 347.9 204.199 395.76C265.272 417.394 325.157 425.771 374.707 422.103C370.38 415.555 367.851 407.721 367.851 399.304C367.851 397.049 368.039 394.838 368.387 392.679C321.484 395.83 267.506 387.454 213.879 368.458C151.844 346.484 98.3827 313.178 63.343 274.676C32.464 240.746 19.991 206.514 29.1232 180.756C38.2555 154.999 69.5098 136.256 114.873 129.333C166.348 121.477 228.861 129.253 290.897 151.228C352.932 173.202 406.393 206.508 441.433 245.01C472.312 278.94 484.784 313.172 475.653 338.93C470.668 352.987 459.082 364.948 442.223 374.045C447.618 381.046 450.838 389.804 450.838 399.304C450.838 400.474 450.778 401.629 450.682 402.774C471.443 391.936 486.269 376.851 493.031 357.779C517.436 288.941 427.692 194.339 292.58 146.479Z" fill="#5A65AE"/>
</g>
<mask id="mask1_7_2" style="mask-type:luminance" maskUnits="userSpaceOnUse" x="-121" y="-42" width="755" height="566">
<path d="M-121 -42H634V524H-121V-42Z" fill="white"/>
</mask>
<g mask="url(#mask1_7_2)">
<path d="M277.169 385.942C257.203 401.821 236.646 414.747 216.208 424.103C174.487 443.203 138.069 444.681 116.292 428.16C94.5161 411.639 86.1454 376.18 93.3283 330.877C94.581 322.974 96.2694 314.933 98.367 306.795C96.2377 305.138 94.1533 303.461 92.0948 301.774C71.4001 368.699 76.747 426.616 112.116 453.45C157.868 488.161 240.228 460.515 315.469 391.657C302.912 390.422 290.108 388.509 277.169 385.942Z" fill="#5A65AE"/>
</g>
<mask id="mask2_7_2" style="mask-type:luminance" maskUnits="userSpaceOnUse" x="-121" y="-42" width="755" height="566">
<path d="M-121 -42H634V524H-121V-42Z" fill="white"/>
</mask>
<g mask="url(#mask2_7_2)">
<path d="M409.496 206.821C407.149 212.902 404.586 219.007 401.832 225.121C402.028 225.578 402.227 226.036 402.415 226.492L402.605 226.953C402.959 227.822 403.288 228.666 403.608 229.506L403.79 229.983C404.116 230.851 404.43 231.731 404.731 232.605L404.882 233.046C405.186 233.945 405.474 234.836 405.744 235.724L405.848 236.064C406.139 237.033 406.403 237.966 406.634 238.846L406.674 238.999C406.941 240.023 407.167 240.959 407.366 241.866C407.489 242.429 407.603 242.979 407.709 243.526C407.975 244.9 408.197 246.31 408.369 247.719C408.411 248.005 408.468 248.406 408.508 248.859C408.535 249.059 408.559 249.246 408.575 249.431C408.618 249.901 408.615 250.369 408.568 250.83C408.556 251.392 408.515 251.973 408.447 252.589C408.447 252.595 408.445 252.608 408.445 252.608C407.975 256.868 406.067 260.863 403.069 263.858C402.892 264.035 402.707 264.203 402.513 264.361L357.291 301.188C355.335 303.881 353.356 306.566 351.33 309.235C330.858 336.194 308.214 360.07 284.608 379.862C297.504 382.223 310.24 383.908 322.697 384.901C340.627 367.752 358.067 348.272 374.413 326.747C399.635 293.531 419.46 259.115 433.474 225.92C425.977 219.36 417.965 212.983 409.496 206.821Z" fill="#5A65AE"/>
</g>
<mask id="mask3_7_2" style="mask-type:luminance" maskUnits="userSpaceOnUse" x="-121" y="-42" width="755" height="566">
<path d="M-121 -42H634V524H-121V-42Z" fill="white"/>
</mask>
<g mask="url(#mask3_7_2)">
<path d="M236.012 90.1645C210.867 111.329 186.218 137.14 163.656 166.852C131.629 209.03 108.298 253.141 94.5322 294.229C96.4801 295.859 98.4649 297.474 100.481 299.075C112.713 256.546 135.924 211.705 167.671 169.898C189.723 140.857 214.294 115.389 239.876 94.7574C238.313 93.4905 236.999 91.9318 236.012 90.1645Z" fill="#5A65AE"/>
</g>
<mask id="mask4_7_2" style="mask-type:luminance" maskUnits="userSpaceOnUse" x="-121" y="-42" width="755" height="566">
<path d="M-121 -42H634V524H-121V-42Z" fill="white"/>
</mask>
<g mask="url(#mask4_7_2)">
<path d="M425.953 40.1492C387.831 11.2265 324.291 25.5939 260.632 71.0228C262.288 72.5837 263.607 74.4917 264.468 76.6363C277.174 68.1419 290.005 60.8827 302.791 55.0296C344.513 35.93 380.931 34.4517 402.707 50.9725C424.484 67.4941 432.854 102.952 425.672 148.255C423.033 164.906 418.467 182.162 412.163 199.663C420.717 205.817 428.823 212.187 436.431 218.742C467.562 140.728 465.989 70.5238 425.953 40.1492Z" fill="#5A65AE"/>
</g>
<mask id="mask5_7_2" style="mask-type:luminance" maskUnits="userSpaceOnUse" x="-121" y="-42" width="755" height="566">
<path d="M-121 -42H634V524H-121V-42Z" fill="white"/>
</mask>
<g mask="url(#mask5_7_2)">
<path d="M75.5675 93.4578C75.5675 101.314 69.1957 107.682 61.3368 107.682C53.4771 107.682 47.1053 101.314 47.1053 93.4578C47.1053 85.6016 53.4771 79.2334 61.3368 79.2334C69.1957 79.2334 75.5675 85.6016 75.5675 93.4578Z" fill="#5A65AE"/>
</g>
<mask id="mask6_7_2" style="mask-type:luminance" maskUnits="userSpaceOnUse" x="-121" y="-42" width="755" height="566">
<path d="M-121 -42H634V524H-121V-42Z" fill="white"/>
</mask>
<g mask="url(#mask6_7_2)">
<path d="M498.043 164.945C498.043 172.801 491.671 179.169 483.812 179.169C475.953 179.169 469.581 172.801 469.581 164.945C469.581 157.089 475.953 150.72 483.812 150.72C491.671 150.72 498.043 157.089 498.043 164.945Z" fill="#5A65AE"/>
</g>
<mask id="mask7_7_2" style="mask-type:luminance" maskUnits="userSpaceOnUse" x="-121" y="-42" width="755" height="566">
<path d="M-121 -42H634V524H-121V-42Z" fill="white"/>
</mask>
<g mask="url(#mask7_7_2)">
<path d="M65.1702 370.548C65.1702 379.99 57.5125 387.644 48.0662 387.644C38.6198 387.644 30.9614 379.99 30.9614 370.548C30.9614 361.106 38.6198 353.452 48.0662 353.452C57.5125 353.452 65.1702 361.106 65.1702 370.548Z" fill="#5A65AE"/>
</g>
<mask id="mask8_7_2" style="mask-type:luminance" maskUnits="userSpaceOnUse" x="-121" y="-42" width="755" height="566">
<path d="M-121 -42H634V524H-121V-42Z" fill="white"/>
</mask>
<g mask="url(#mask8_7_2)">
<path d="M260.447 82.4952C260.447 88.3675 255.684 93.1269 249.81 93.1269C243.935 93.1269 239.173 88.3675 239.173 82.4952C239.173 76.6237 243.935 71.8636 249.81 71.8636C255.684 71.8636 260.447 76.6237 260.447 82.4952Z" fill="#5A65AE"/>
</g>
<mask id="mask9_7_2" style="mask-type:luminance" maskUnits="userSpaceOnUse" x="-121" y="-42" width="755" height="566">
<path d="M-121 -42H634V524H-121V-42Z" fill="white"/>
</mask>
<g mask="url(#mask9_7_2)">
<path d="M219.63 26.9855C219.63 41.8408 207.583 53.8831 192.721 53.8831C177.859 53.8831 165.812 41.8408 165.812 26.9855C165.812 12.1302 177.859 0.0879998 192.721 0.0879998C207.583 0.0879998 219.63 12.1302 219.63 26.9855Z" fill="#5A65AE"/>
</g>
<mask id="mask10_7_2" style="mask-type:luminance" maskUnits="userSpaceOnUse" x="-121" y="-42" width="755" height="566">
<path d="M-121 -42H634V524H-121V-42Z" fill="white"/>
</mask>
<g mask="url(#mask10_7_2)">
<path d="M443.465 399.304C443.465 418.14 428.189 433.409 409.345 433.409C390.5 433.409 375.224 418.14 375.224 399.304C375.224 380.468 390.5 365.199 409.345 365.199C428.189 365.199 443.465 380.468 443.465 399.304Z" fill="#5A65AE"/>
</g>
<mask id="mask11_7_2" style="mask-type:luminance" maskUnits="userSpaceOnUse" x="-121" y="-42" width="755" height="566">
<path d="M-121 -42H634V524H-121V-42Z" fill="white"/>
</mask>
<g mask="url(#mask11_7_2)">
<path d="M157.166 89.7546C135.37 82.3038 111.411 79.0073 103.515 85.6297C95.6193 92.2522 94.7073 116.41 98.2633 139.158C101.622 160.642 112.178 180.497 131.371 203.361L173.022 168.428L214.673 133.494C195.478 110.63 177.749 96.7913 157.166 89.7546Z" fill="#E59273"/>
</g>
<mask id="mask12_7_2" style="mask-type:luminance" maskUnits="userSpaceOnUse" x="-121" y="-42" width="755" height="566">
<path d="M-121 -42H634V524H-121V-42Z" fill="white"/>
</mask>
<g mask="url(#mask12_7_2)">
<g opacity="0.139999">
<mask id="mask13_7_2" style="mask-type:luminance" maskUnits="userSpaceOnUse" x="118" y="115" width="67" height="82">
<path d="M118.587 115.03H184.721V196.459H118.587V115.03Z" fill="white"/>
</mask>
<g mask="url(#mask13_7_2)">
<path d="M145.004 196.46C135.668 183.442 122.405 163.966 120.012 147.257C117.705 131.144 118.582 119.551 119.961 115.21C120.683 115.114 121.714 115.03 123.122 115.03C130.39 115.03 141.025 117.182 151.571 120.787C162.982 124.688 173.517 131.767 184.721 143.218L145.004 196.46Z" fill="black"/>
</g>
</g>
</g>
<mask id="mask14_7_2" style="mask-type:luminance" maskUnits="userSpaceOnUse" x="-121" y="-42" width="755" height="566">
<path d="M-121 -42H634V524H-121V-42Z" fill="white"/>
</mask>
<g mask="url(#mask14_7_2)">
<path d="M355.834 89.7546C377.63 82.3038 401.589 79.0073 409.485 85.6297C417.381 92.2522 418.293 116.41 414.737 139.158C411.378 160.642 400.822 180.497 381.629 203.361L339.978 168.428L298.327 133.494C317.522 110.63 335.251 96.7913 355.834 89.7546Z" fill="#E59273"/>
</g>
<mask id="mask15_7_2" style="mask-type:luminance" maskUnits="userSpaceOnUse" x="-121" y="-42" width="755" height="566">
<path d="M-121 -42H634V524H-121V-42Z" fill="white"/>
</mask>
<g mask="url(#mask15_7_2)">
<g opacity="0.350006">
<mask id="mask16_7_2" style="mask-type:luminance" maskUnits="userSpaceOnUse" x="328" y="115" width="67" height="82">
<path d="M328.279 115.03H394.413V196.459H328.279V115.03Z" fill="white"/>
</mask>
<g mask="url(#mask16_7_2)">
<path d="M367.996 196.46C377.332 183.442 390.595 163.966 392.988 147.257C395.295 131.144 394.418 119.551 393.039 115.21C392.317 115.114 391.286 115.03 389.878 115.03C382.61 115.03 371.975 117.182 361.429 120.787C350.018 124.688 339.483 131.767 328.279 143.218L367.996 196.46Z" fill="#963C20"/>
</g>
</g>
</g>
<mask id="mask17_7_2" style="mask-type:luminance" maskUnits="userSpaceOnUse" x="-121" y="-42" width="755" height="566">
<path d="M-121 -42H634V524H-121V-42Z" fill="white"/>
</mask>
<g mask="url(#mask17_7_2)">
<g opacity="0.119995">
<mask id="mask18_7_2" style="mask-type:luminance" maskUnits="userSpaceOnUse" x="298" y="82" width="119" height="122">
<path d="M298.328 82.0601H416.723V203.361H298.328V82.0601Z" fill="white"/>
</mask>
<g mask="url(#mask18_7_2)">
<path d="M409.485 85.6296C401.589 79.0071 377.629 82.3036 355.834 89.7545C335.251 96.7911 317.521 110.63 298.328 133.494L339.978 168.428L381.628 203.361C400.822 180.497 411.378 160.642 414.736 139.158C418.293 116.41 417.38 92.2521 409.485 85.6296Z" fill="#ED1C24"/>
</g>
</g>
</g>
<mask id="mask19_7_2" style="mask-type:luminance" maskUnits="userSpaceOnUse" x="-121" y="-42" width="755" height="566">
<path d="M-121 -42H634V524H-121V-42Z" fill="white"/>
</mask>
<g mask="url(#mask19_7_2)">
<path d="M399.761 244.945C399.665 244.772 399.563 244.601 399.458 244.432C399.563 244.601 399.665 244.771 399.761 244.945ZM400.215 245.871C400.144 245.71 400.071 245.548 399.992 245.39C400.07 245.549 400.144 245.709 400.215 245.871ZM400.575 246.806C400.525 246.66 400.478 246.513 400.423 246.368C400.478 246.514 400.526 246.659 400.575 246.806ZM113.209 245.048C113.268 244.937 113.338 244.832 113.4 244.723C113.337 244.832 113.268 244.938 113.209 245.048ZM112.75 246.012C112.779 245.942 112.814 245.875 112.845 245.807C112.814 245.875 112.779 245.943 112.75 246.012ZM114.429 243.219C114.668 242.926 114.922 242.643 115.195 242.37C114.922 242.643 114.668 242.927 114.429 243.219ZM401.123 249.276H401.132C397.824 218.848 363.9 177.158 346.987 156.089C316.966 118.689 297.881 105.248 256.517 104.595V105.894C256.516 105.894 256.514 105.894 256.513 105.894V104.595C215.15 105.248 196.065 118.689 166.042 156.089C149.222 177.044 115.599 218.386 111.979 248.769C111.938 249.044 111.901 249.318 111.88 249.593C111.863 249.761 111.833 249.932 111.819 250.098H111.856C111.746 253.183 112.852 256.305 115.195 258.647L248.373 367.104C250.612 369.341 253.563 370.46 256.513 370.461C256.514 370.461 256.516 370.461 256.517 370.461C259.468 370.46 262.418 369.341 264.657 367.104L397.835 258.647C400.387 256.097 401.479 252.622 401.123 249.276Z" fill="#E59273"/>
</g>
<mask id="mask20_7_2" style="mask-type:luminance" maskUnits="userSpaceOnUse" x="-121" y="-42" width="755" height="566">
<path d="M-121 -42H634V524H-121V-42Z" fill="white"/>
</mask>
<g mask="url(#mask20_7_2)">
<path d="M222.118 249.31C213.25 210.225 189.992 178.959 161.118 162.232C143.403 184.409 115.273 221.123 111.98 248.769C111.938 249.044 111.901 249.318 111.88 249.593C111.863 249.761 111.833 249.932 111.818 250.098H111.855C111.747 253.184 112.851 256.305 115.195 258.647L213.516 338.718C225.624 313.167 229.427 281.525 222.118 249.31Z" fill="#EBE3CD"/>
</g>
<mask id="mask21_7_2" style="mask-type:luminance" maskUnits="userSpaceOnUse" x="-121" y="-42" width="755" height="566">
<path d="M-121 -42H634V524H-121V-42Z" fill="white"/>
</mask>
<g mask="url(#mask21_7_2)">
<path d="M222.118 249.31C213.25 210.225 189.992 178.959 161.118 162.232C143.403 184.409 115.273 221.123 111.98 248.769C111.938 249.044 111.901 249.318 111.88 249.593C111.863 249.761 111.833 249.932 111.818 250.098H111.855C111.747 253.184 112.851 256.305 115.195 258.647L213.516 338.718C225.624 313.167 229.427 281.525 222.118 249.31Z" fill="#EBE3CD"/>
</g>
<mask id="mask22_7_2" style="mask-type:luminance" maskUnits="userSpaceOnUse" x="-121" y="-42" width="755" height="566">
<path d="M-121 -42H634V524H-121V-42Z" fill="white"/>
</mask>
<g mask="url(#mask22_7_2)">
<path d="M299.534 338.717L397.856 258.647C400.199 256.305 401.304 253.183 401.195 250.098H401.232C401.217 249.932 401.188 249.76 401.171 249.594C401.149 249.318 401.113 249.044 401.071 248.77C397.778 221.123 369.647 184.409 351.933 162.231C323.059 178.959 299.8 210.226 290.933 249.309C283.623 281.525 287.427 313.167 299.534 338.717Z" fill="#EBE3CD"/>
</g>
<mask id="mask23_7_2" style="mask-type:luminance" maskUnits="userSpaceOnUse" x="-121" y="-42" width="755" height="566">
<path d="M-121 -42H634V524H-121V-42Z" fill="white"/>
</mask>
<g mask="url(#mask23_7_2)">
<path d="M299.534 338.717L397.856 258.647C400.199 256.305 401.304 253.183 401.195 250.098H401.232C401.217 249.932 401.188 249.76 401.171 249.594C401.149 249.318 401.113 249.044 401.071 248.77C397.778 221.123 369.647 184.409 351.933 162.231C323.059 178.959 299.8 210.226 290.933 249.309C283.623 281.525 287.427 313.167 299.534 338.717Z" fill="#EBE3CD"/>
</g>
<mask id="mask24_7_2" style="mask-type:luminance" maskUnits="userSpaceOnUse" x="-121" y="-42" width="755" height="566">
<path d="M-121 -42H634V524H-121V-42Z" fill="white"/>
</mask>
<g mask="url(#mask24_7_2)">
<g opacity="0.0800018">
<mask id="mask25_7_2" style="mask-type:luminance" maskUnits="userSpaceOnUse" x="177" y="240" width="36" height="35">
<path d="M177.662 240.222H212.206V274.749H177.662V240.222Z" fill="white"/>
</mask>
<g mask="url(#mask25_7_2)">
<path d="M207.147 245.278C213.892 252.02 213.892 262.951 207.147 269.693C200.402 276.435 189.466 276.435 182.722 269.693C175.976 262.951 175.976 252.02 182.722 245.278C189.466 238.536 200.402 238.536 207.147 245.278Z" fill="black"/>
</g>
</g>
</g>
<mask id="mask26_7_2" style="mask-type:luminance" maskUnits="userSpaceOnUse" x="-121" y="-42" width="755" height="566">
<path d="M-121 -42H634V524H-121V-42Z" fill="white"/>
</mask>
<g mask="url(#mask26_7_2)">
<path d="M209.359 241.593C216.104 248.335 216.104 259.266 209.359 266.008C202.614 272.75 191.678 272.75 184.933 266.008C178.188 259.266 178.188 248.335 184.933 241.593C191.678 234.851 202.614 234.851 209.359 241.593Z" fill="#4A454B"/>
</g>
<mask id="mask27_7_2" style="mask-type:luminance" maskUnits="userSpaceOnUse" x="-121" y="-42" width="755" height="566">
<path d="M-121 -42H634V524H-121V-42Z" fill="white"/>
</mask>
<g mask="url(#mask27_7_2)">
<path d="M211.285 253.861C213.958 256.534 213.958 260.865 211.285 263.538C208.611 266.209 204.277 266.209 201.604 263.538C198.931 260.865 198.931 256.534 201.604 253.861C204.277 251.189 208.611 251.189 211.285 253.861Z" fill="white"/>
</g>
<mask id="mask28_7_2" style="mask-type:luminance" maskUnits="userSpaceOnUse" x="-121" y="-42" width="755" height="566">
<path d="M-121 -42H634V524H-121V-42Z" fill="white"/>
</mask>
<g mask="url(#mask28_7_2)">
<g opacity="0.0800018">
<mask id="mask29_7_2" style="mask-type:luminance" maskUnits="userSpaceOnUse" x="300" y="240" width="36" height="35">
<path d="M300.811 240.222H335.355V274.749H300.811V240.222Z" fill="white"/>
</mask>
<g mask="url(#mask29_7_2)">
<path d="M305.87 245.278C299.125 252.02 299.125 262.951 305.87 269.693C312.615 276.435 323.551 276.435 330.296 269.693C337.041 262.951 337.041 252.02 330.296 245.278C323.551 238.536 312.615 238.536 305.87 245.278Z" fill="black"/>
</g>
</g>
</g>
<mask id="mask30_7_2" style="mask-type:luminance" maskUnits="userSpaceOnUse" x="-121" y="-42" width="755" height="566">
<path d="M-121 -42H634V524H-121V-42Z" fill="white"/>
</mask>
<g mask="url(#mask30_7_2)">
<path d="M303.658 241.593C296.913 248.335 296.913 259.266 303.658 266.008C310.403 272.75 321.339 272.75 328.084 266.008C334.829 259.266 334.829 248.335 328.084 241.593C321.339 234.851 310.403 234.851 303.658 241.593Z" fill="#4A454B"/>
</g>
<mask id="mask31_7_2" style="mask-type:luminance" maskUnits="userSpaceOnUse" x="-121" y="-42" width="755" height="566">
<path d="M-121 -42H634V524H-121V-42Z" fill="white"/>
</mask>
<g mask="url(#mask31_7_2)">
<path d="M301.733 253.861C299.059 256.534 299.059 260.865 301.733 263.538C304.406 266.209 308.74 266.209 311.413 263.538C314.086 260.865 314.086 256.534 311.413 253.861C308.74 251.189 304.406 251.189 301.733 253.861Z" fill="white"/>
</g>
<mask id="mask32_7_2" style="mask-type:luminance" maskUnits="userSpaceOnUse" x="-121" y="-42" width="755" height="566">
<path d="M-121 -42H634V524H-121V-42Z" fill="white"/>
</mask>
<g mask="url(#mask32_7_2)">
<g opacity="0.130005">
<mask id="mask33_7_2" style="mask-type:luminance" maskUnits="userSpaceOnUse" x="231" y="282" width="51" height="39">
<path d="M231.074 282.65H281.98V320.337H231.074V282.65Z" fill="white"/>
</mask>
<g mask="url(#mask33_7_2)">
<path d="M247.336 292.701L231.074 288.345L232.601 282.65L248.863 287.006L247.336 292.701Z" fill="white"/>
</g>
<mask id="mask34_7_2" style="mask-type:luminance" maskUnits="userSpaceOnUse" x="231" y="282" width="51" height="39">
<path d="M231.074 282.65H281.98V320.337H231.074V282.65Z" fill="white"/>
</mask>
<g mask="url(#mask34_7_2)">
<path d="M281.98 288.345L265.718 292.701L264.191 287.005L280.453 282.651L281.98 288.345Z" fill="white"/>
</g>
<mask id="mask35_7_2" style="mask-type:luminance" maskUnits="userSpaceOnUse" x="231" y="282" width="51" height="39">
<path d="M231.074 282.65H281.98V320.337H231.074V282.65Z" fill="white"/>
</mask>
<g mask="url(#mask35_7_2)">
<path d="M249.548 306.519L233.286 302.163L234.813 296.469L251.075 300.824L249.548 306.519Z" fill="white"/>
</g>
<mask id="mask36_7_2" style="mask-type:luminance" maskUnits="userSpaceOnUse" x="231" y="282" width="51" height="39">
<path d="M231.074 282.65H281.98V320.337H231.074V282.65Z" fill="white"/>
</mask>
<g mask="url(#mask36_7_2)">
<path d="M279.768 302.164L263.506 306.519L261.979 300.824L278.241 296.469L279.768 302.164Z" fill="white"/>
</g>
<mask id="mask37_7_2" style="mask-type:luminance" maskUnits="userSpaceOnUse" x="231" y="282" width="51" height="39">
<path d="M231.074 282.65H281.98V320.337H231.074V282.65Z" fill="white"/>
</mask>
<g mask="url(#mask37_7_2)">
<path d="M250.285 320.337L234.024 315.982L235.55 310.287L251.812 314.643L250.285 320.337Z" fill="white"/>
</g>
<mask id="mask38_7_2" style="mask-type:luminance" maskUnits="userSpaceOnUse" x="231" y="282" width="51" height="39">
<path d="M231.074 282.65H281.98V320.337H231.074V282.65Z" fill="white"/>
</mask>
<g mask="url(#mask38_7_2)">
<path d="M279.03 315.982L262.769 320.337L261.242 314.642L277.503 310.287L279.03 315.982Z" fill="white"/>
</g>
</g>
</g>
<mask id="mask39_7_2" style="mask-type:luminance" maskUnits="userSpaceOnUse" x="-121" y="-42" width="755" height="566">
<path d="M-121 -42H634V524H-121V-42Z" fill="white"/>
</mask>
<g mask="url(#mask39_7_2)">
<g opacity="0.119995">
<mask id="mask40_7_2" style="mask-type:luminance" maskUnits="userSpaceOnUse" x="256" y="104" width="146" height="267">
<path d="M256.5 104.595H401.189V370.461H256.5V104.595Z" fill="white"/>
</mask>
<g mask="url(#mask40_7_2)">
<path d="M401.123 249.276H401.132C397.824 218.848 363.9 177.158 346.988 156.089C316.965 118.689 297.88 105.248 256.517 104.595V105.894C256.515 105.894 256.514 105.894 256.513 105.894V104.595C256.508 104.595 256.504 104.595 256.5 104.595V370.46C256.504 370.46 256.508 370.461 256.513 370.461C256.514 370.461 256.515 370.461 256.517 370.461C259.467 370.46 262.418 369.342 264.656 367.104L397.835 258.647C400.387 256.097 401.479 252.622 401.123 249.276Z" fill="#ED1C24"/>
</g>
</g>
</g>
<mask id="mask41_7_2" style="mask-type:luminance" maskUnits="userSpaceOnUse" x="-121" y="-42" width="755" height="566">
<path d="M-121 -42H634V524H-121V-42Z" fill="white"/>
</mask>
<g mask="url(#mask41_7_2)">
<path d="M213.517 338.718L248.373 367.104C250.612 369.341 253.563 370.46 256.513 370.461C256.513 370.461 256.515 370.461 256.517 370.461C259.468 370.46 262.418 369.341 264.657 367.104L299.508 338.723C286.781 336.647 272.116 335.462 256.5 335.462C240.894 335.462 226.238 336.645 213.517 338.718Z" fill="#4A454B"/>
</g>
<mask id="mask42_7_2" style="mask-type:luminance" maskUnits="userSpaceOnUse" x="-121" y="-42" width="755" height="566">
<path d="M-121 -42H634V524H-121V-42Z" fill="white"/>
</mask>
<g mask="url(#mask42_7_2)">
<g opacity="0.330002">
<mask id="mask43_7_2" style="mask-type:luminance" maskUnits="userSpaceOnUse" x="237" y="342" width="39" height="17">
<path d="M237.984 342.861H275.044V358.13H237.984V342.861Z" fill="white"/>
</mask>
<g mask="url(#mask43_7_2)">
<path d="M256.513 358.129C256.197 358.129 255.738 358.048 255.352 357.662C255.115 357.425 254.866 357.201 254.607 356.99L237.984 343.452C244.034 343.061 250.248 342.861 256.5 342.861C262.763 342.861 268.985 343.061 275.044 343.455L258.424 356.99C258.164 357.201 257.916 357.425 257.68 357.661C257.292 358.048 256.833 358.129 256.517 358.129H256.513Z" fill="white"/>
</g>
</g>
</g>
<mask id="mask44_7_2" style="mask-type:luminance" maskUnits="userSpaceOnUse" x="-121" y="-42" width="755" height="566">
<path d="M-121 -42H634V524H-121V-42Z" fill="white"/>
</mask>
<g mask="url(#mask44_7_2)">
<path d="M326.957 285.648C303.985 285.648 285.295 266.967 285.295 244.004C285.295 221.041 303.985 202.36 326.957 202.36C349.929 202.36 368.619 221.041 368.619 244.004C368.619 266.967 349.929 285.648 326.957 285.648ZM326.957 187.964C295.994 187.964 270.893 213.054 270.893 244.004C270.893 274.954 295.994 300.043 326.957 300.043C357.92 300.043 383.021 274.954 383.021 244.004C383.021 213.054 357.92 187.964 326.957 187.964Z" fill="#4A454B"/>
</g>
<mask id="mask45_7_2" style="mask-type:luminance" maskUnits="userSpaceOnUse" x="-121" y="-42" width="755" height="566">
<path d="M-121 -42H634V524H-121V-42Z" fill="white"/>
</mask>
<g mask="url(#mask45_7_2)">
<path d="M186.043 285.648C163.071 285.648 144.381 266.967 144.381 244.004C144.381 221.041 163.071 202.36 186.043 202.36C209.015 202.36 227.705 221.041 227.705 244.004C227.705 266.967 209.015 285.648 186.043 285.648ZM186.043 187.964C155.08 187.964 129.979 213.054 129.979 244.004C129.979 274.954 155.08 300.043 186.043 300.043C217.006 300.043 242.107 274.954 242.107 244.004C242.107 213.054 217.006 187.964 186.043 187.964Z" fill="#4A454B"/>
</g>
<mask id="mask46_7_2" style="mask-type:luminance" maskUnits="userSpaceOnUse" x="-121" y="-42" width="755" height="566">
<path d="M-121 -42H634V524H-121V-42Z" fill="white"/>
</mask>
<g mask="url(#mask46_7_2)">
<path d="M271.784 254.622H240.805V239.55H271.784V254.622Z" fill="#4A454B"/>
</g>
<mask id="mask47_7_2" style="mask-type:luminance" maskUnits="userSpaceOnUse" x="-121" y="-42" width="755" height="566">
<path d="M-121 -42H634V524H-121V-42Z" fill="white"/>
</mask>
<g mask="url(#mask47_7_2)">
<path d="M140.523 226.048L123.589 216.276L131.129 203.223L148.062 212.996L140.523 226.048Z" fill="#4A454B"/>
</g>
<mask id="mask48_7_2" style="mask-type:luminance" maskUnits="userSpaceOnUse" x="-121" y="-42" width="755" height="566">
<path d="M-121 -42H634V524H-121V-42Z" fill="white"/>
</mask>
<g mask="url(#mask48_7_2)">
<path d="M372.468 226.048L389.402 216.276L381.862 203.223L364.929 212.996L372.468 226.048Z" fill="#4A454B"/>
</g>
</g>
<defs>
<clipPath id="clip0_7_2">
<rect width="498" height="468" fill="white"/>
</clipPath>
</defs>
</svg>
